<?xml version="1.0" standalone="no"?>
<!DOCTYPE svg PUBLIC "-//W3C//DTD SVG 20010904//EN"
 "http://www.w3.org/TR/2001/REC-SVG-20010904/DTD/svg10.dtd">
<svg version="1.0" xmlns="http://www.w3.org/2000/svg"
 width="620.000000pt" height="512.000000pt" viewBox="0 0 620.000000 512.000000"
 preserveAspectRatio="xMidYMid meet">

<g transform="translate(0.000000,512.000000) scale(0.100000,-0.100000)"
fill="#000000" stroke="none">
<path d="M3037 5038 c-9 -46 -28 -142 -41 -215 -33 -170 -70 -330 -125 -533
-116 -423 -282 -857 -488 -1274 l-104 -210 19 -55 c11 -31 37 -110 57 -176 20
-66 56 -183 80 -260 90 -286 148 -472 165 -530 10 -33 43 -141 74 -240 32 -99
74 -236 96 -305 21 -69 55 -179 75 -245 21 -66 50 -158 65 -205 l27 -85 160
-3 160 -2 20 67 c46 149 233 755 264 853 43 134 222 708 249 800 16 52 49 161
75 242 l46 147 -100 203 c-143 294 -218 469 -323 757 -117 324 -244 786 -298
1091 -6 36 -18 95 -26 132 -8 37 -14 81 -14 97 0 30 -1 31 -48 31 l-49 0 -16
-82z"/>
<path d="M1807 2047 c-3 -7 -46 -69 -97 -137 -432 -581 -912 -1062 -1497
-1501 -94 -71 -181 -142 -192 -158 -18 -25 -21 -44 -21 -138 l0 -109 58 27
c296 142 769 315 1132 412 330 90 540 132 975 198 44 6 83 13 86 15 3 2 -9 52
-27 111 -50 164 -159 520 -183 593 -76 241 -167 536 -204 663 -12 38 -21 46
-30 24z"/>
<path d="M4363 2023 c-37 -127 -128 -422 -204 -663 -24 -73 -133 -429 -183
-593 -18 -59 -30 -109 -27 -111 3 -2 42 -9 86 -15 435 -66 645 -108 975 -198
363 -97 836 -270 1132 -412 l58 -27 0 109 c0 94 -3 113 -21 138 -11 16 -98 87
-192 158 -585 439 -1065 920 -1497 1501 -51 68 -94 130 -97 137 -9 22 -18 14
-30 -24z"/>
</g>
</svg>
